<mxfile host="app.diagrams.net" modified="2024-03-24T09:52:46.021Z" agent="Mozilla/5.0 (Macintosh; Intel Mac OS X 10_15_7) AppleWebKit/537.36 (KHTML, like Gecko) Chrome/122.0.0.0 Safari/537.36" etag="NFROuZ37QclVdArB3xpE" version="24.0.4" type="github" pages="3">
  <diagram name="第 1 页" id="cu0csjhSQF4z3ltx_wKB">
    <mxGraphModel dx="1026" dy="577" grid="1" gridSize="10" guides="1" tooltips="1" connect="1" arrows="1" fold="1" page="1" pageScale="1" pageWidth="3300" pageHeight="4681" math="0" shadow="0">
      <root>
        <mxCell id="0" />
        <mxCell id="1" parent="0" />
        <mxCell id="pJqj7H3_A37Cpctz6LLI-16" value="" style="group" parent="1" vertex="1" connectable="0">
          <mxGeometry x="260" y="440" width="600" height="190" as="geometry" />
        </mxCell>
        <mxCell id="pJqj7H3_A37Cpctz6LLI-4" style="edgeStyle=orthogonalEdgeStyle;rounded=0;orthogonalLoop=1;jettySize=auto;html=1;exitX=1;exitY=0.5;exitDx=0;exitDy=0;" parent="pJqj7H3_A37Cpctz6LLI-16" source="pJqj7H3_A37Cpctz6LLI-3" edge="1">
          <mxGeometry relative="1" as="geometry">
            <mxPoint x="160" y="95" as="targetPoint" />
          </mxGeometry>
        </mxCell>
        <mxCell id="pJqj7H3_A37Cpctz6LLI-3" value="申请开通" style="rounded=0;whiteSpace=wrap;html=1;" parent="pJqj7H3_A37Cpctz6LLI-16" vertex="1">
          <mxGeometry y="70" width="110" height="50" as="geometry" />
        </mxCell>
        <mxCell id="pJqj7H3_A37Cpctz6LLI-6" style="edgeStyle=orthogonalEdgeStyle;rounded=0;orthogonalLoop=1;jettySize=auto;html=1;exitX=1;exitY=0.5;exitDx=0;exitDy=0;" parent="pJqj7H3_A37Cpctz6LLI-16" source="pJqj7H3_A37Cpctz6LLI-5" edge="1">
          <mxGeometry relative="1" as="geometry">
            <mxPoint x="320" y="95" as="targetPoint" />
          </mxGeometry>
        </mxCell>
        <mxCell id="pJqj7H3_A37Cpctz6LLI-5" value="信息填写" style="rounded=0;whiteSpace=wrap;html=1;" parent="pJqj7H3_A37Cpctz6LLI-16" vertex="1">
          <mxGeometry x="160" y="70" width="110" height="50" as="geometry" />
        </mxCell>
        <mxCell id="pJqj7H3_A37Cpctz6LLI-7" value="信息审核" style="rounded=0;whiteSpace=wrap;html=1;" parent="pJqj7H3_A37Cpctz6LLI-16" vertex="1">
          <mxGeometry x="320" y="70" width="110" height="50" as="geometry" />
        </mxCell>
        <mxCell id="pJqj7H3_A37Cpctz6LLI-9" value="审核通过，账单系统自动开通" style="rounded=0;whiteSpace=wrap;html=1;" parent="pJqj7H3_A37Cpctz6LLI-16" vertex="1">
          <mxGeometry x="490" width="110" height="50" as="geometry" />
        </mxCell>
        <mxCell id="pJqj7H3_A37Cpctz6LLI-10" style="edgeStyle=orthogonalEdgeStyle;rounded=0;orthogonalLoop=1;jettySize=auto;html=1;exitX=1;exitY=0.5;exitDx=0;exitDy=0;entryX=0;entryY=0.5;entryDx=0;entryDy=0;" parent="pJqj7H3_A37Cpctz6LLI-16" source="pJqj7H3_A37Cpctz6LLI-7" target="pJqj7H3_A37Cpctz6LLI-9" edge="1">
          <mxGeometry relative="1" as="geometry" />
        </mxCell>
        <mxCell id="pJqj7H3_A37Cpctz6LLI-13" style="edgeStyle=orthogonalEdgeStyle;rounded=0;orthogonalLoop=1;jettySize=auto;html=1;exitX=0.5;exitY=1;exitDx=0;exitDy=0;entryX=0.5;entryY=1;entryDx=0;entryDy=0;" parent="pJqj7H3_A37Cpctz6LLI-16" source="pJqj7H3_A37Cpctz6LLI-11" target="pJqj7H3_A37Cpctz6LLI-5" edge="1">
          <mxGeometry relative="1" as="geometry" />
        </mxCell>
        <mxCell id="pJqj7H3_A37Cpctz6LLI-11" value="审核未通过，通知商户" style="rounded=0;whiteSpace=wrap;html=1;" parent="pJqj7H3_A37Cpctz6LLI-16" vertex="1">
          <mxGeometry x="490" y="140" width="110" height="50" as="geometry" />
        </mxCell>
        <mxCell id="pJqj7H3_A37Cpctz6LLI-12" style="edgeStyle=orthogonalEdgeStyle;rounded=0;orthogonalLoop=1;jettySize=auto;html=1;exitX=1;exitY=0.5;exitDx=0;exitDy=0;entryX=0;entryY=0.5;entryDx=0;entryDy=0;" parent="pJqj7H3_A37Cpctz6LLI-16" source="pJqj7H3_A37Cpctz6LLI-7" target="pJqj7H3_A37Cpctz6LLI-11" edge="1">
          <mxGeometry relative="1" as="geometry" />
        </mxCell>
        <mxCell id="pJqj7H3_A37Cpctz6LLI-18" value="&lt;div&gt;商户号，票据类型，收件人邮箱，首次开票日期，开票周期，开票注意事项，姓名，联系方式&lt;/div&gt;&lt;div&gt;&lt;br&gt;&lt;/div&gt;" style="rounded=0;whiteSpace=wrap;html=1;align=left;" parent="1" vertex="1">
          <mxGeometry x="260" y="680" width="540" height="70" as="geometry" />
        </mxCell>
        <mxCell id="pJqj7H3_A37Cpctz6LLI-19" value="Text" style="text;html=1;align=center;verticalAlign=middle;resizable=0;points=[];autosize=1;strokeColor=none;fillColor=none;" parent="1" vertex="1">
          <mxGeometry x="545" y="628" width="50" height="30" as="geometry" />
        </mxCell>
        <mxCell id="HVTADqvi9kav-OrVGYuU-4" style="edgeStyle=orthogonalEdgeStyle;rounded=0;orthogonalLoop=1;jettySize=auto;html=1;exitX=0.5;exitY=0.5;exitDx=0;exitDy=0;exitPerimeter=0;entryX=0;entryY=0.5;entryDx=0;entryDy=0;" parent="1" source="HVTADqvi9kav-OrVGYuU-1" target="HVTADqvi9kav-OrVGYuU-2" edge="1">
          <mxGeometry relative="1" as="geometry" />
        </mxCell>
        <mxCell id="HVTADqvi9kav-OrVGYuU-1" value="用户" style="shape=umlActor;verticalLabelPosition=bottom;verticalAlign=top;html=1;outlineConnect=0;" parent="1" vertex="1">
          <mxGeometry x="250" y="950" width="30" height="60" as="geometry" />
        </mxCell>
        <mxCell id="HVTADqvi9kav-OrVGYuU-7" style="edgeStyle=orthogonalEdgeStyle;rounded=0;orthogonalLoop=1;jettySize=auto;html=1;exitX=1;exitY=0.5;exitDx=0;exitDy=0;entryX=0;entryY=0.5;entryDx=0;entryDy=0;" parent="1" source="HVTADqvi9kav-OrVGYuU-2" target="HVTADqvi9kav-OrVGYuU-5" edge="1">
          <mxGeometry relative="1" as="geometry" />
        </mxCell>
        <mxCell id="HVTADqvi9kav-OrVGYuU-14" style="edgeStyle=orthogonalEdgeStyle;rounded=0;orthogonalLoop=1;jettySize=auto;html=1;exitX=1;exitY=0.5;exitDx=0;exitDy=0;entryX=0;entryY=0.5;entryDx=0;entryDy=0;" parent="1" source="HVTADqvi9kav-OrVGYuU-2" target="HVTADqvi9kav-OrVGYuU-11" edge="1">
          <mxGeometry relative="1" as="geometry" />
        </mxCell>
        <mxCell id="HVTADqvi9kav-OrVGYuU-15" style="edgeStyle=orthogonalEdgeStyle;rounded=0;orthogonalLoop=1;jettySize=auto;html=1;exitX=1;exitY=0.5;exitDx=0;exitDy=0;entryX=0;entryY=0.5;entryDx=0;entryDy=0;" parent="1" source="HVTADqvi9kav-OrVGYuU-2" target="HVTADqvi9kav-OrVGYuU-13" edge="1">
          <mxGeometry relative="1" as="geometry" />
        </mxCell>
        <mxCell id="HVTADqvi9kav-OrVGYuU-2" value="开票" style="rounded=0;whiteSpace=wrap;html=1;fillColor=#d5e8d4;strokeColor=#82b366;" parent="1" vertex="1">
          <mxGeometry x="320" y="955" width="110" height="50" as="geometry" />
        </mxCell>
        <mxCell id="HVTADqvi9kav-OrVGYuU-8" style="edgeStyle=orthogonalEdgeStyle;rounded=0;orthogonalLoop=1;jettySize=auto;html=1;exitX=1;exitY=0.5;exitDx=0;exitDy=0;entryX=0;entryY=0.5;entryDx=0;entryDy=0;" parent="1" source="HVTADqvi9kav-OrVGYuU-5" target="HVTADqvi9kav-OrVGYuU-6" edge="1">
          <mxGeometry relative="1" as="geometry" />
        </mxCell>
        <mxCell id="HVTADqvi9kav-OrVGYuU-5" value="首次开票" style="rounded=0;whiteSpace=wrap;html=1;fillColor=#d5e8d4;strokeColor=#82b366;" parent="1" vertex="1">
          <mxGeometry x="470" y="880" width="110" height="50" as="geometry" />
        </mxCell>
        <mxCell id="HVTADqvi9kav-OrVGYuU-10" style="edgeStyle=orthogonalEdgeStyle;rounded=0;orthogonalLoop=1;jettySize=auto;html=1;exitX=1;exitY=0.5;exitDx=0;exitDy=0;entryX=0;entryY=0.5;entryDx=0;entryDy=0;" parent="1" source="HVTADqvi9kav-OrVGYuU-6" target="HVTADqvi9kav-OrVGYuU-9" edge="1">
          <mxGeometry relative="1" as="geometry" />
        </mxCell>
        <mxCell id="HVTADqvi9kav-OrVGYuU-6" value="信息填写" style="rounded=0;whiteSpace=wrap;html=1;fillColor=#d5e8d4;strokeColor=#82b366;" parent="1" vertex="1">
          <mxGeometry x="640" y="880" width="110" height="50" as="geometry" />
        </mxCell>
        <mxCell id="HVTADqvi9kav-OrVGYuU-16" style="edgeStyle=orthogonalEdgeStyle;rounded=0;orthogonalLoop=1;jettySize=auto;html=1;exitX=1;exitY=0.5;exitDx=0;exitDy=0;" parent="1" source="HVTADqvi9kav-OrVGYuU-9" edge="1">
          <mxGeometry relative="1" as="geometry">
            <mxPoint x="920" y="980" as="targetPoint" />
          </mxGeometry>
        </mxCell>
        <mxCell id="HVTADqvi9kav-OrVGYuU-24" value="是" style="edgeLabel;html=1;align=center;verticalAlign=middle;resizable=0;points=[];" parent="HVTADqvi9kav-OrVGYuU-16" vertex="1" connectable="0">
          <mxGeometry x="-0.1112" y="4" relative="1" as="geometry">
            <mxPoint as="offset" />
          </mxGeometry>
        </mxCell>
        <mxCell id="HVTADqvi9kav-OrVGYuU-25" style="edgeStyle=orthogonalEdgeStyle;rounded=0;orthogonalLoop=1;jettySize=auto;html=1;exitX=0.5;exitY=1;exitDx=0;exitDy=0;entryX=0;entryY=0.5;entryDx=0;entryDy=0;" parent="1" source="HVTADqvi9kav-OrVGYuU-9" target="HVTADqvi9kav-OrVGYuU-19" edge="1">
          <mxGeometry relative="1" as="geometry" />
        </mxCell>
        <mxCell id="HVTADqvi9kav-OrVGYuU-28" value="否" style="edgeLabel;html=1;align=center;verticalAlign=middle;resizable=0;points=[];" parent="HVTADqvi9kav-OrVGYuU-25" vertex="1" connectable="0">
          <mxGeometry x="-0.8557" y="-1" relative="1" as="geometry">
            <mxPoint as="offset" />
          </mxGeometry>
        </mxCell>
        <mxCell id="HVTADqvi9kav-OrVGYuU-9" value="是否涉及INT票据" style="rhombus;whiteSpace=wrap;html=1;fillColor=#d5e8d4;strokeColor=#82b366;" parent="1" vertex="1">
          <mxGeometry x="800" y="940" width="80" height="80" as="geometry" />
        </mxCell>
        <mxCell id="HVTADqvi9kav-OrVGYuU-12" style="edgeStyle=orthogonalEdgeStyle;rounded=0;orthogonalLoop=1;jettySize=auto;html=1;exitX=1;exitY=0.5;exitDx=0;exitDy=0;entryX=0;entryY=0.5;entryDx=0;entryDy=0;" parent="1" source="HVTADqvi9kav-OrVGYuU-11" target="HVTADqvi9kav-OrVGYuU-9" edge="1">
          <mxGeometry relative="1" as="geometry" />
        </mxCell>
        <mxCell id="HVTADqvi9kav-OrVGYuU-11" value="新增票据" style="rounded=0;whiteSpace=wrap;html=1;fillColor=#d5e8d4;strokeColor=#82b366;" parent="1" vertex="1">
          <mxGeometry x="470" y="955" width="110" height="50" as="geometry" />
        </mxCell>
        <mxCell id="HVTADqvi9kav-OrVGYuU-13" value="信息修改" style="rounded=0;whiteSpace=wrap;html=1;fillColor=#d5e8d4;strokeColor=#82b366;" parent="1" vertex="1">
          <mxGeometry x="470" y="1040" width="110" height="50" as="geometry" />
        </mxCell>
        <mxCell id="HVTADqvi9kav-OrVGYuU-20" style="edgeStyle=orthogonalEdgeStyle;rounded=0;orthogonalLoop=1;jettySize=auto;html=1;exitX=1;exitY=0.5;exitDx=0;exitDy=0;entryX=0;entryY=0.5;entryDx=0;entryDy=0;" parent="1" source="HVTADqvi9kav-OrVGYuU-17" target="HVTADqvi9kav-OrVGYuU-19" edge="1">
          <mxGeometry relative="1" as="geometry" />
        </mxCell>
        <mxCell id="HVTADqvi9kav-OrVGYuU-26" value="审核通过" style="edgeLabel;html=1;align=center;verticalAlign=middle;resizable=0;points=[];" parent="HVTADqvi9kav-OrVGYuU-20" vertex="1" connectable="0">
          <mxGeometry x="-0.0514" y="-1" relative="1" as="geometry">
            <mxPoint as="offset" />
          </mxGeometry>
        </mxCell>
        <mxCell id="HVTADqvi9kav-OrVGYuU-22" style="edgeStyle=orthogonalEdgeStyle;rounded=0;orthogonalLoop=1;jettySize=auto;html=1;exitX=1;exitY=0.5;exitDx=0;exitDy=0;entryX=0;entryY=0.5;entryDx=0;entryDy=0;" parent="1" source="HVTADqvi9kav-OrVGYuU-17" target="HVTADqvi9kav-OrVGYuU-21" edge="1">
          <mxGeometry relative="1" as="geometry" />
        </mxCell>
        <mxCell id="HVTADqvi9kav-OrVGYuU-27" value="审核未通过" style="edgeLabel;html=1;align=center;verticalAlign=middle;resizable=0;points=[];" parent="HVTADqvi9kav-OrVGYuU-22" vertex="1" connectable="0">
          <mxGeometry x="0.0857" y="2" relative="1" as="geometry">
            <mxPoint as="offset" />
          </mxGeometry>
        </mxCell>
        <mxCell id="HVTADqvi9kav-OrVGYuU-17" value="审核" style="rounded=0;whiteSpace=wrap;html=1;fillColor=#d5e8d4;strokeColor=#82b366;" parent="1" vertex="1">
          <mxGeometry x="920" y="957.5" width="90" height="45" as="geometry" />
        </mxCell>
        <mxCell id="HVTADqvi9kav-OrVGYuU-19" value="账单系统自动开通" style="rounded=0;whiteSpace=wrap;html=1;fillColor=#d5e8d4;strokeColor=#82b366;" parent="1" vertex="1">
          <mxGeometry x="1110" y="1030" width="110" height="50" as="geometry" />
        </mxCell>
        <mxCell id="HVTADqvi9kav-OrVGYuU-23" style="edgeStyle=orthogonalEdgeStyle;rounded=0;orthogonalLoop=1;jettySize=auto;html=1;exitX=0.5;exitY=0;exitDx=0;exitDy=0;entryX=0.5;entryY=0;entryDx=0;entryDy=0;" parent="1" source="HVTADqvi9kav-OrVGYuU-21" target="HVTADqvi9kav-OrVGYuU-6" edge="1">
          <mxGeometry relative="1" as="geometry" />
        </mxCell>
        <mxCell id="HVTADqvi9kav-OrVGYuU-21" value="审核未通过，通知商户" style="rounded=0;whiteSpace=wrap;html=1;fillColor=#d5e8d4;strokeColor=#82b366;" parent="1" vertex="1">
          <mxGeometry x="1110" y="880" width="110" height="50" as="geometry" />
        </mxCell>
        <mxCell id="HVTADqvi9kav-OrVGYuU-31" style="edgeStyle=orthogonalEdgeStyle;rounded=0;orthogonalLoop=1;jettySize=auto;html=1;exitX=0.5;exitY=0.5;exitDx=0;exitDy=0;exitPerimeter=0;entryX=0;entryY=0.5;entryDx=0;entryDy=0;" parent="1" source="HVTADqvi9kav-OrVGYuU-29" target="HVTADqvi9kav-OrVGYuU-30" edge="1">
          <mxGeometry relative="1" as="geometry" />
        </mxCell>
        <mxCell id="HVTADqvi9kav-OrVGYuU-29" value="用户" style="shape=umlActor;verticalLabelPosition=bottom;verticalAlign=top;html=1;outlineConnect=0;" parent="1" vertex="1">
          <mxGeometry x="250" y="1190" width="30" height="60" as="geometry" />
        </mxCell>
        <mxCell id="HVTADqvi9kav-OrVGYuU-36" style="edgeStyle=orthogonalEdgeStyle;rounded=0;orthogonalLoop=1;jettySize=auto;html=1;exitX=1;exitY=0.5;exitDx=0;exitDy=0;entryX=0;entryY=0.5;entryDx=0;entryDy=0;" parent="1" source="HVTADqvi9kav-OrVGYuU-30" target="HVTADqvi9kav-OrVGYuU-32" edge="1">
          <mxGeometry relative="1" as="geometry" />
        </mxCell>
        <mxCell id="HVTADqvi9kav-OrVGYuU-30" value="添加成员" style="rounded=0;whiteSpace=wrap;html=1;fillColor=#d5e8d4;strokeColor=#82b366;" parent="1" vertex="1">
          <mxGeometry x="320" y="1195" width="110" height="50" as="geometry" />
        </mxCell>
        <mxCell id="HVTADqvi9kav-OrVGYuU-37" style="edgeStyle=orthogonalEdgeStyle;rounded=0;orthogonalLoop=1;jettySize=auto;html=1;exitX=1;exitY=0.5;exitDx=0;exitDy=0;" parent="1" source="HVTADqvi9kav-OrVGYuU-32" target="HVTADqvi9kav-OrVGYuU-33" edge="1">
          <mxGeometry relative="1" as="geometry" />
        </mxCell>
        <mxCell id="HVTADqvi9kav-OrVGYuU-32" value="添加成员" style="rounded=0;whiteSpace=wrap;html=1;fillColor=#d5e8d4;strokeColor=#82b366;" parent="1" vertex="1">
          <mxGeometry x="475" y="1195" width="110" height="50" as="geometry" />
        </mxCell>
        <mxCell id="HVTADqvi9kav-OrVGYuU-38" style="edgeStyle=orthogonalEdgeStyle;rounded=0;orthogonalLoop=1;jettySize=auto;html=1;exitX=1;exitY=0.5;exitDx=0;exitDy=0;entryX=0;entryY=0.5;entryDx=0;entryDy=0;" parent="1" source="HVTADqvi9kav-OrVGYuU-33" target="HVTADqvi9kav-OrVGYuU-34" edge="1">
          <mxGeometry relative="1" as="geometry" />
        </mxCell>
        <mxCell id="HVTADqvi9kav-OrVGYuU-33" value="邮箱校验提示" style="rounded=0;whiteSpace=wrap;html=1;fillColor=#f8cecc;strokeColor=#b85450;" parent="1" vertex="1">
          <mxGeometry x="630" y="1195" width="110" height="50" as="geometry" />
        </mxCell>
        <mxCell id="HVTADqvi9kav-OrVGYuU-39" style="edgeStyle=orthogonalEdgeStyle;rounded=0;orthogonalLoop=1;jettySize=auto;html=1;exitX=1;exitY=0.5;exitDx=0;exitDy=0;entryX=0;entryY=0.5;entryDx=0;entryDy=0;" parent="1" source="HVTADqvi9kav-OrVGYuU-34" target="HVTADqvi9kav-OrVGYuU-35" edge="1">
          <mxGeometry relative="1" as="geometry" />
        </mxCell>
        <mxCell id="HVTADqvi9kav-OrVGYuU-34" value="权限授予" style="rounded=0;whiteSpace=wrap;html=1;fillColor=#d5e8d4;strokeColor=#82b366;" parent="1" vertex="1">
          <mxGeometry x="785" y="1195" width="110" height="50" as="geometry" />
        </mxCell>
        <mxCell id="HVTADqvi9kav-OrVGYuU-35" value="操作员账号激活" style="rounded=0;whiteSpace=wrap;html=1;fillColor=#d5e8d4;strokeColor=#82b366;" parent="1" vertex="1">
          <mxGeometry x="940" y="1195" width="110" height="50" as="geometry" />
        </mxCell>
        <mxCell id="_tnm5-aNoUzQb92LcqBZ-1" value="" style="rounded=0;whiteSpace=wrap;html=1;" parent="1" vertex="1">
          <mxGeometry x="360" y="1570" width="120" height="60" as="geometry" />
        </mxCell>
      </root>
    </mxGraphModel>
  </diagram>
  <diagram id="GzejsNA35uah5Cyf58Cn" name="第 2 页">
    <mxGraphModel dx="1026" dy="577" grid="1" gridSize="10" guides="1" tooltips="1" connect="1" arrows="1" fold="1" page="1" pageScale="1" pageWidth="3300" pageHeight="4681" math="0" shadow="0">
      <root>
        <mxCell id="0" />
        <mxCell id="1" parent="0" />
        <mxCell id="nkRXtdyLiusc29qKUhsi-2" style="edgeStyle=orthogonalEdgeStyle;rounded=0;orthogonalLoop=1;jettySize=auto;html=1;exitX=0.5;exitY=1;exitDx=0;exitDy=0;" parent="1" source="nkRXtdyLiusc29qKUhsi-1" edge="1">
          <mxGeometry relative="1" as="geometry">
            <mxPoint x="355" y="230" as="targetPoint" />
          </mxGeometry>
        </mxCell>
        <mxCell id="nkRXtdyLiusc29qKUhsi-1" value="获取开通账单会员号" style="rounded=1;whiteSpace=wrap;html=1;" parent="1" vertex="1">
          <mxGeometry x="290" y="140" width="130" height="50" as="geometry" />
        </mxCell>
        <mxCell id="nkRXtdyLiusc29qKUhsi-4" style="edgeStyle=orthogonalEdgeStyle;rounded=0;orthogonalLoop=1;jettySize=auto;html=1;exitX=0.5;exitY=1;exitDx=0;exitDy=0;" parent="1" source="nkRXtdyLiusc29qKUhsi-3" edge="1">
          <mxGeometry relative="1" as="geometry">
            <mxPoint x="355" y="320" as="targetPoint" />
          </mxGeometry>
        </mxCell>
        <mxCell id="nkRXtdyLiusc29qKUhsi-3" value="拉取当天账单计划" style="rounded=1;whiteSpace=wrap;html=1;" parent="1" vertex="1">
          <mxGeometry x="290" y="230" width="130" height="50" as="geometry" />
        </mxCell>
        <mxCell id="nkRXtdyLiusc29qKUhsi-7" style="edgeStyle=orthogonalEdgeStyle;rounded=0;orthogonalLoop=1;jettySize=auto;html=1;exitX=0.5;exitY=1;exitDx=0;exitDy=0;" parent="1" source="nkRXtdyLiusc29qKUhsi-5" edge="1">
          <mxGeometry relative="1" as="geometry">
            <mxPoint x="355" y="410" as="targetPoint" />
          </mxGeometry>
        </mxCell>
        <mxCell id="nkRXtdyLiusc29qKUhsi-5" value="根据会员号分组" style="rounded=1;whiteSpace=wrap;html=1;" parent="1" vertex="1">
          <mxGeometry x="290" y="320" width="130" height="50" as="geometry" />
        </mxCell>
        <mxCell id="nkRXtdyLiusc29qKUhsi-6" value="比对分组数和开通会员号账单数是否一致" style="shape=document;whiteSpace=wrap;html=1;boundedLbl=1;" parent="1" vertex="1">
          <mxGeometry x="460" y="320" width="120" height="80" as="geometry" />
        </mxCell>
        <mxCell id="DRZhU7RM03bqdv0-Pzh2-2" style="edgeStyle=orthogonalEdgeStyle;rounded=0;orthogonalLoop=1;jettySize=auto;html=1;exitX=0.5;exitY=1;exitDx=0;exitDy=0;entryX=0.5;entryY=0;entryDx=0;entryDy=0;" parent="1" source="nkRXtdyLiusc29qKUhsi-8" target="DRZhU7RM03bqdv0-Pzh2-1" edge="1">
          <mxGeometry relative="1" as="geometry" />
        </mxCell>
        <mxCell id="nkRXtdyLiusc29qKUhsi-8" value="根据计划号获取信息号" style="rounded=1;whiteSpace=wrap;html=1;" parent="1" vertex="1">
          <mxGeometry x="290" y="410" width="130" height="50" as="geometry" />
        </mxCell>
        <mxCell id="DRZhU7RM03bqdv0-Pzh2-5" style="edgeStyle=orthogonalEdgeStyle;rounded=0;orthogonalLoop=1;jettySize=auto;html=1;exitX=0.5;exitY=1;exitDx=0;exitDy=0;" parent="1" source="DRZhU7RM03bqdv0-Pzh2-1" edge="1">
          <mxGeometry relative="1" as="geometry">
            <mxPoint x="355" y="600" as="targetPoint" />
          </mxGeometry>
        </mxCell>
        <mxCell id="DRZhU7RM03bqdv0-Pzh2-1" value="由计划号获取临时文件" style="rounded=1;whiteSpace=wrap;html=1;" parent="1" vertex="1">
          <mxGeometry x="290" y="510" width="130" height="50" as="geometry" />
        </mxCell>
        <mxCell id="DRZhU7RM03bqdv0-Pzh2-4" value="对比文件数和账单信息中是否一致" style="shape=document;whiteSpace=wrap;html=1;boundedLbl=1;" parent="1" vertex="1">
          <mxGeometry x="460" y="510" width="120" height="80" as="geometry" />
        </mxCell>
        <mxCell id="DRZhU7RM03bqdv0-Pzh2-9" style="edgeStyle=orthogonalEdgeStyle;rounded=0;orthogonalLoop=1;jettySize=auto;html=1;exitX=0.5;exitY=1;exitDx=0;exitDy=0;entryX=0.5;entryY=0;entryDx=0;entryDy=0;" parent="1" source="DRZhU7RM03bqdv0-Pzh2-6" target="DRZhU7RM03bqdv0-Pzh2-8" edge="1">
          <mxGeometry relative="1" as="geometry" />
        </mxCell>
        <mxCell id="DRZhU7RM03bqdv0-Pzh2-6" value="解析文件，获取文件条数" style="rounded=1;whiteSpace=wrap;html=1;" parent="1" vertex="1">
          <mxGeometry x="290" y="600" width="130" height="50" as="geometry" />
        </mxCell>
        <mxCell id="DRZhU7RM03bqdv0-Pzh2-7" value="对比记录数和账单信息中是否一致" style="shape=document;whiteSpace=wrap;html=1;boundedLbl=1;" parent="1" vertex="1">
          <mxGeometry x="460" y="600" width="120" height="80" as="geometry" />
        </mxCell>
        <mxCell id="DRZhU7RM03bqdv0-Pzh2-8" value="完成" style="rounded=1;whiteSpace=wrap;html=1;" parent="1" vertex="1">
          <mxGeometry x="310" y="680" width="90" height="30" as="geometry" />
        </mxCell>
      </root>
    </mxGraphModel>
  </diagram>
  <diagram id="COfJsDLyzLoNRZxb-hpA" name="第 3 页">
    <mxGraphModel dx="821" dy="521" grid="1" gridSize="10" guides="1" tooltips="1" connect="1" arrows="1" fold="1" page="1" pageScale="1" pageWidth="3300" pageHeight="4681" math="0" shadow="0">
      <root>
        <mxCell id="0" />
        <mxCell id="1" parent="0" />
        <mxCell id="NObJLYzm5EEqaqrMD9Xn-6" style="edgeStyle=orthogonalEdgeStyle;rounded=0;orthogonalLoop=1;jettySize=auto;html=1;exitX=1;exitY=0.5;exitDx=0;exitDy=0;" edge="1" parent="1" source="NObJLYzm5EEqaqrMD9Xn-5">
          <mxGeometry relative="1" as="geometry">
            <mxPoint x="560" y="210" as="targetPoint" />
          </mxGeometry>
        </mxCell>
        <mxCell id="NObJLYzm5EEqaqrMD9Xn-5" value="问卷设计" style="rounded=0;whiteSpace=wrap;html=1;" vertex="1" parent="1">
          <mxGeometry x="390" y="180" width="120" height="60" as="geometry" />
        </mxCell>
        <mxCell id="NObJLYzm5EEqaqrMD9Xn-9" style="edgeStyle=orthogonalEdgeStyle;rounded=0;orthogonalLoop=1;jettySize=auto;html=1;exitX=1;exitY=0.5;exitDx=0;exitDy=0;entryX=0;entryY=0.5;entryDx=0;entryDy=0;" edge="1" parent="1" source="NObJLYzm5EEqaqrMD9Xn-7" target="NObJLYzm5EEqaqrMD9Xn-8">
          <mxGeometry relative="1" as="geometry" />
        </mxCell>
        <mxCell id="NObJLYzm5EEqaqrMD9Xn-7" value="创建问卷任务" style="rounded=0;whiteSpace=wrap;html=1;" vertex="1" parent="1">
          <mxGeometry x="560" y="180" width="120" height="60" as="geometry" />
        </mxCell>
        <mxCell id="NObJLYzm5EEqaqrMD9Xn-11" style="edgeStyle=orthogonalEdgeStyle;rounded=0;orthogonalLoop=1;jettySize=auto;html=1;exitX=1;exitY=0.5;exitDx=0;exitDy=0;entryX=0;entryY=0.5;entryDx=0;entryDy=0;" edge="1" parent="1" source="NObJLYzm5EEqaqrMD9Xn-8" target="NObJLYzm5EEqaqrMD9Xn-10">
          <mxGeometry relative="1" as="geometry" />
        </mxCell>
        <mxCell id="NObJLYzm5EEqaqrMD9Xn-8" value="任务分发" style="rounded=0;whiteSpace=wrap;html=1;" vertex="1" parent="1">
          <mxGeometry x="730" y="180" width="120" height="60" as="geometry" />
        </mxCell>
        <mxCell id="NObJLYzm5EEqaqrMD9Xn-13" style="edgeStyle=orthogonalEdgeStyle;rounded=0;orthogonalLoop=1;jettySize=auto;html=1;exitX=1;exitY=0.5;exitDx=0;exitDy=0;entryX=0;entryY=0.5;entryDx=0;entryDy=0;" edge="1" parent="1" source="NObJLYzm5EEqaqrMD9Xn-10" target="NObJLYzm5EEqaqrMD9Xn-12">
          <mxGeometry relative="1" as="geometry" />
        </mxCell>
        <mxCell id="NObJLYzm5EEqaqrMD9Xn-10" value="信息收集" style="rounded=0;whiteSpace=wrap;html=1;" vertex="1" parent="1">
          <mxGeometry x="900" y="180" width="120" height="60" as="geometry" />
        </mxCell>
        <mxCell id="NObJLYzm5EEqaqrMD9Xn-12" value="数据分析" style="rounded=0;whiteSpace=wrap;html=1;" vertex="1" parent="1">
          <mxGeometry x="1060" y="180" width="120" height="60" as="geometry" />
        </mxCell>
        <mxCell id="NObJLYzm5EEqaqrMD9Xn-18" style="edgeStyle=orthogonalEdgeStyle;rounded=0;orthogonalLoop=1;jettySize=auto;html=1;exitX=1;exitY=0.3333333333333333;exitDx=0;exitDy=0;exitPerimeter=0;entryX=0.5;entryY=0;entryDx=0;entryDy=0;curved=1;" edge="1" parent="1" source="NObJLYzm5EEqaqrMD9Xn-14" target="NObJLYzm5EEqaqrMD9Xn-17">
          <mxGeometry relative="1" as="geometry" />
        </mxCell>
        <mxCell id="NObJLYzm5EEqaqrMD9Xn-19" value="问卷设计" style="edgeLabel;html=1;align=center;verticalAlign=middle;resizable=0;points=[];" vertex="1" connectable="0" parent="NObJLYzm5EEqaqrMD9Xn-18">
          <mxGeometry x="-0.2667" y="-4" relative="1" as="geometry">
            <mxPoint as="offset" />
          </mxGeometry>
        </mxCell>
        <mxCell id="NObJLYzm5EEqaqrMD9Xn-20" style="edgeStyle=orthogonalEdgeStyle;rounded=0;orthogonalLoop=1;jettySize=auto;html=1;exitX=1;exitY=0.3333333333333333;exitDx=0;exitDy=0;exitPerimeter=0;entryX=0.5;entryY=1;entryDx=0;entryDy=0;curved=1;" edge="1" parent="1" source="NObJLYzm5EEqaqrMD9Xn-14" target="NObJLYzm5EEqaqrMD9Xn-17">
          <mxGeometry relative="1" as="geometry" />
        </mxCell>
        <mxCell id="NObJLYzm5EEqaqrMD9Xn-21" value="调查任务创建" style="edgeLabel;html=1;align=center;verticalAlign=middle;resizable=0;points=[];" vertex="1" connectable="0" parent="NObJLYzm5EEqaqrMD9Xn-20">
          <mxGeometry x="0.0364" y="8" relative="1" as="geometry">
            <mxPoint as="offset" />
          </mxGeometry>
        </mxCell>
        <mxCell id="NObJLYzm5EEqaqrMD9Xn-14" value="研发" style="shape=umlActor;verticalLabelPosition=bottom;verticalAlign=top;html=1;" vertex="1" parent="1">
          <mxGeometry x="560" y="410" width="30" height="60" as="geometry" />
        </mxCell>
        <mxCell id="NObJLYzm5EEqaqrMD9Xn-17" value="OMC" style="html=1;whiteSpace=wrap;" vertex="1" parent="1">
          <mxGeometry x="680" y="415" width="110" height="50" as="geometry" />
        </mxCell>
        <mxCell id="NObJLYzm5EEqaqrMD9Xn-25" style="edgeStyle=orthogonalEdgeStyle;rounded=0;orthogonalLoop=1;jettySize=auto;html=1;exitX=0;exitY=1;exitDx=0;exitDy=0;exitPerimeter=0;curved=1;" edge="1" parent="1" source="NObJLYzm5EEqaqrMD9Xn-22" target="NObJLYzm5EEqaqrMD9Xn-17">
          <mxGeometry relative="1" as="geometry" />
        </mxCell>
        <mxCell id="NObJLYzm5EEqaqrMD9Xn-26" value="调查数据" style="edgeLabel;html=1;align=center;verticalAlign=middle;resizable=0;points=[];" vertex="1" connectable="0" parent="NObJLYzm5EEqaqrMD9Xn-25">
          <mxGeometry x="0.15" relative="1" as="geometry">
            <mxPoint as="offset" />
          </mxGeometry>
        </mxCell>
        <mxCell id="NObJLYzm5EEqaqrMD9Xn-22" value="用户" style="shape=umlActor;verticalLabelPosition=bottom;verticalAlign=top;html=1;" vertex="1" parent="1">
          <mxGeometry x="890" y="360" width="30" height="60" as="geometry" />
        </mxCell>
        <mxCell id="NObJLYzm5EEqaqrMD9Xn-23" style="edgeStyle=orthogonalEdgeStyle;rounded=0;orthogonalLoop=1;jettySize=auto;html=1;exitX=0.75;exitY=0;exitDx=0;exitDy=0;entryX=0;entryY=0.3333333333333333;entryDx=0;entryDy=0;entryPerimeter=0;curved=1;" edge="1" parent="1" source="NObJLYzm5EEqaqrMD9Xn-17" target="NObJLYzm5EEqaqrMD9Xn-22">
          <mxGeometry relative="1" as="geometry" />
        </mxCell>
        <mxCell id="NObJLYzm5EEqaqrMD9Xn-24" value="调查任务分发" style="edgeLabel;html=1;align=center;verticalAlign=middle;resizable=0;points=[];" vertex="1" connectable="0" parent="NObJLYzm5EEqaqrMD9Xn-23">
          <mxGeometry x="0.1262" y="-5" relative="1" as="geometry">
            <mxPoint as="offset" />
          </mxGeometry>
        </mxCell>
        <mxCell id="NObJLYzm5EEqaqrMD9Xn-27" value="创建问卷" style="ellipse;whiteSpace=wrap;html=1;" vertex="1" parent="1">
          <mxGeometry x="610" y="570" width="110" height="50" as="geometry" />
        </mxCell>
        <mxCell id="NObJLYzm5EEqaqrMD9Xn-29" style="rounded=0;orthogonalLoop=1;jettySize=auto;html=1;exitX=1;exitY=0.3333333333333333;exitDx=0;exitDy=0;exitPerimeter=0;entryX=0;entryY=0.5;entryDx=0;entryDy=0;" edge="1" parent="1" source="NObJLYzm5EEqaqrMD9Xn-28" target="NObJLYzm5EEqaqrMD9Xn-27">
          <mxGeometry relative="1" as="geometry" />
        </mxCell>
        <mxCell id="NObJLYzm5EEqaqrMD9Xn-34" style="rounded=0;orthogonalLoop=1;jettySize=auto;html=1;exitX=1;exitY=0.3333333333333333;exitDx=0;exitDy=0;exitPerimeter=0;" edge="1" parent="1" source="NObJLYzm5EEqaqrMD9Xn-28" target="NObJLYzm5EEqaqrMD9Xn-33">
          <mxGeometry relative="1" as="geometry" />
        </mxCell>
        <mxCell id="NObJLYzm5EEqaqrMD9Xn-28" value="用户" style="shape=umlActor;verticalLabelPosition=bottom;verticalAlign=top;html=1;" vertex="1" parent="1">
          <mxGeometry x="460" y="670" width="30" height="60" as="geometry" />
        </mxCell>
        <mxCell id="NObJLYzm5EEqaqrMD9Xn-31" value="编辑问卷" style="ellipse;whiteSpace=wrap;html=1;" vertex="1" parent="1">
          <mxGeometry x="610" y="630" width="110" height="50" as="geometry" />
        </mxCell>
        <mxCell id="NObJLYzm5EEqaqrMD9Xn-32" style="rounded=0;orthogonalLoop=1;jettySize=auto;html=1;exitX=1;exitY=0.3333333333333333;exitDx=0;exitDy=0;exitPerimeter=0;entryX=0.036;entryY=0.66;entryDx=0;entryDy=0;entryPerimeter=0;" edge="1" parent="1" source="NObJLYzm5EEqaqrMD9Xn-28" target="NObJLYzm5EEqaqrMD9Xn-31">
          <mxGeometry relative="1" as="geometry" />
        </mxCell>
        <mxCell id="NObJLYzm5EEqaqrMD9Xn-35" style="rounded=0;orthogonalLoop=1;jettySize=auto;html=1;exitX=1;exitY=0.5;exitDx=0;exitDy=0;dashed=1;entryX=0;entryY=0.5;entryDx=0;entryDy=0;" edge="1" parent="1" source="NObJLYzm5EEqaqrMD9Xn-33" target="NObJLYzm5EEqaqrMD9Xn-36">
          <mxGeometry relative="1" as="geometry">
            <mxPoint x="800" y="725" as="targetPoint" />
          </mxGeometry>
        </mxCell>
        <mxCell id="NObJLYzm5EEqaqrMD9Xn-37" value="&amp;lt;&amp;lt;include&amp;gt;&amp;gt;" style="edgeLabel;html=1;align=center;verticalAlign=middle;resizable=0;points=[];" vertex="1" connectable="0" parent="NObJLYzm5EEqaqrMD9Xn-35">
          <mxGeometry x="0.0566" y="2" relative="1" as="geometry">
            <mxPoint as="offset" />
          </mxGeometry>
        </mxCell>
        <mxCell id="NObJLYzm5EEqaqrMD9Xn-33" value="创建问卷任务" style="ellipse;whiteSpace=wrap;html=1;" vertex="1" parent="1">
          <mxGeometry x="610" y="700" width="110" height="50" as="geometry" />
        </mxCell>
        <mxCell id="NObJLYzm5EEqaqrMD9Xn-36" value="任务分发" style="ellipse;whiteSpace=wrap;html=1;" vertex="1" parent="1">
          <mxGeometry x="830" y="670" width="110" height="50" as="geometry" />
        </mxCell>
        <mxCell id="NObJLYzm5EEqaqrMD9Xn-38" value="补充收件人" style="ellipse;whiteSpace=wrap;html=1;" vertex="1" parent="1">
          <mxGeometry x="830" y="730" width="110" height="50" as="geometry" />
        </mxCell>
        <mxCell id="NObJLYzm5EEqaqrMD9Xn-39" style="rounded=0;orthogonalLoop=1;jettySize=auto;html=1;exitX=1;exitY=0.5;exitDx=0;exitDy=0;dashed=1;entryX=0.036;entryY=0.38;entryDx=0;entryDy=0;entryPerimeter=0;" edge="1" parent="1" source="NObJLYzm5EEqaqrMD9Xn-33" target="NObJLYzm5EEqaqrMD9Xn-38">
          <mxGeometry relative="1" as="geometry">
            <mxPoint x="840" y="705" as="targetPoint" />
            <mxPoint x="730" y="735" as="sourcePoint" />
          </mxGeometry>
        </mxCell>
        <mxCell id="NObJLYzm5EEqaqrMD9Xn-40" value="&amp;lt;&amp;lt;include&amp;gt;&amp;gt;" style="edgeLabel;html=1;align=center;verticalAlign=middle;resizable=0;points=[];" vertex="1" connectable="0" parent="NObJLYzm5EEqaqrMD9Xn-39">
          <mxGeometry x="0.0566" y="2" relative="1" as="geometry">
            <mxPoint as="offset" />
          </mxGeometry>
        </mxCell>
        <mxCell id="NObJLYzm5EEqaqrMD9Xn-41" value="任务重发" style="ellipse;whiteSpace=wrap;html=1;" vertex="1" parent="1">
          <mxGeometry x="830" y="790" width="110" height="50" as="geometry" />
        </mxCell>
        <mxCell id="NObJLYzm5EEqaqrMD9Xn-42" style="rounded=0;orthogonalLoop=1;jettySize=auto;html=1;exitX=1;exitY=0.5;exitDx=0;exitDy=0;dashed=1;entryX=0;entryY=0.5;entryDx=0;entryDy=0;" edge="1" parent="1" source="NObJLYzm5EEqaqrMD9Xn-33" target="NObJLYzm5EEqaqrMD9Xn-41">
          <mxGeometry relative="1" as="geometry">
            <mxPoint x="844" y="759" as="targetPoint" />
            <mxPoint x="730" y="735" as="sourcePoint" />
          </mxGeometry>
        </mxCell>
        <mxCell id="NObJLYzm5EEqaqrMD9Xn-43" value="&amp;lt;&amp;lt;include&amp;gt;&amp;gt;" style="edgeLabel;html=1;align=center;verticalAlign=middle;resizable=0;points=[];" vertex="1" connectable="0" parent="NObJLYzm5EEqaqrMD9Xn-42">
          <mxGeometry x="0.0566" y="2" relative="1" as="geometry">
            <mxPoint as="offset" />
          </mxGeometry>
        </mxCell>
        <mxCell id="NObJLYzm5EEqaqrMD9Xn-44" value="数据分析" style="ellipse;whiteSpace=wrap;html=1;" vertex="1" parent="1">
          <mxGeometry x="610" y="770" width="110" height="50" as="geometry" />
        </mxCell>
        <mxCell id="NObJLYzm5EEqaqrMD9Xn-45" style="rounded=0;orthogonalLoop=1;jettySize=auto;html=1;entryX=-0.036;entryY=0.32;entryDx=0;entryDy=0;entryPerimeter=0;dashed=1;" edge="1" parent="1" target="NObJLYzm5EEqaqrMD9Xn-44">
          <mxGeometry relative="1" as="geometry">
            <mxPoint x="490" y="690" as="sourcePoint" />
            <mxPoint x="625" y="725" as="targetPoint" />
          </mxGeometry>
        </mxCell>
        <mxCell id="NObJLYzm5EEqaqrMD9Xn-51" style="edgeStyle=orthogonalEdgeStyle;rounded=0;orthogonalLoop=1;jettySize=auto;html=1;exitX=0.5;exitY=1;exitDx=0;exitDy=0;exitPerimeter=0;" edge="1" parent="1" source="NObJLYzm5EEqaqrMD9Xn-47" target="NObJLYzm5EEqaqrMD9Xn-50">
          <mxGeometry relative="1" as="geometry" />
        </mxCell>
        <mxCell id="NObJLYzm5EEqaqrMD9Xn-52" style="edgeStyle=orthogonalEdgeStyle;rounded=0;orthogonalLoop=1;jettySize=auto;html=1;exitX=0.5;exitY=1;exitDx=0;exitDy=0;exitPerimeter=0;entryX=0.5;entryY=0;entryDx=0;entryDy=0;" edge="1" parent="1" source="NObJLYzm5EEqaqrMD9Xn-47" target="NObJLYzm5EEqaqrMD9Xn-49">
          <mxGeometry relative="1" as="geometry" />
        </mxCell>
        <mxCell id="NObJLYzm5EEqaqrMD9Xn-47" value="问卷流程" style="strokeWidth=2;html=1;shape=mxgraph.flowchart.start_1;whiteSpace=wrap;fillColor=#dae8fc;strokeColor=#6c8ebf;" vertex="1" parent="1">
          <mxGeometry x="1640" y="200" width="100" height="50" as="geometry" />
        </mxCell>
        <mxCell id="NObJLYzm5EEqaqrMD9Xn-53" style="edgeStyle=orthogonalEdgeStyle;rounded=0;orthogonalLoop=1;jettySize=auto;html=1;exitX=1;exitY=0.5;exitDx=0;exitDy=0;entryX=0;entryY=0.5;entryDx=0;entryDy=0;" edge="1" parent="1" source="NObJLYzm5EEqaqrMD9Xn-49" target="NObJLYzm5EEqaqrMD9Xn-50">
          <mxGeometry relative="1" as="geometry" />
        </mxCell>
        <mxCell id="NObJLYzm5EEqaqrMD9Xn-49" value="问卷设计" style="rounded=0;whiteSpace=wrap;html=1;fillColor=#f5f5f5;strokeColor=#666666;fontColor=#333333;" vertex="1" parent="1">
          <mxGeometry x="1430" y="320" width="110" height="50" as="geometry" />
        </mxCell>
        <mxCell id="NObJLYzm5EEqaqrMD9Xn-55" style="edgeStyle=orthogonalEdgeStyle;rounded=0;orthogonalLoop=1;jettySize=auto;html=1;exitX=0.5;exitY=1;exitDx=0;exitDy=0;entryX=0.5;entryY=0;entryDx=0;entryDy=0;" edge="1" parent="1" source="NObJLYzm5EEqaqrMD9Xn-50" target="NObJLYzm5EEqaqrMD9Xn-54">
          <mxGeometry relative="1" as="geometry" />
        </mxCell>
        <mxCell id="NObJLYzm5EEqaqrMD9Xn-50" value="问卷选择" style="rounded=0;whiteSpace=wrap;html=1;fillColor=#f5f5f5;strokeColor=#666666;fontColor=#333333;" vertex="1" parent="1">
          <mxGeometry x="1635" y="320" width="110" height="50" as="geometry" />
        </mxCell>
        <mxCell id="NObJLYzm5EEqaqrMD9Xn-57" style="edgeStyle=orthogonalEdgeStyle;rounded=0;orthogonalLoop=1;jettySize=auto;html=1;exitX=0.5;exitY=1;exitDx=0;exitDy=0;entryX=0.5;entryY=0;entryDx=0;entryDy=0;" edge="1" parent="1" source="NObJLYzm5EEqaqrMD9Xn-54" target="NObJLYzm5EEqaqrMD9Xn-56">
          <mxGeometry relative="1" as="geometry" />
        </mxCell>
        <mxCell id="NObJLYzm5EEqaqrMD9Xn-54" value="任务创建" style="rounded=0;whiteSpace=wrap;html=1;fillColor=#f5f5f5;strokeColor=#666666;fontColor=#333333;" vertex="1" parent="1">
          <mxGeometry x="1635" y="420" width="110" height="50" as="geometry" />
        </mxCell>
        <mxCell id="NObJLYzm5EEqaqrMD9Xn-71" style="edgeStyle=orthogonalEdgeStyle;rounded=0;orthogonalLoop=1;jettySize=auto;html=1;exitX=0.5;exitY=1;exitDx=0;exitDy=0;entryX=0.5;entryY=0;entryDx=0;entryDy=0;" edge="1" parent="1" source="NObJLYzm5EEqaqrMD9Xn-56" target="NObJLYzm5EEqaqrMD9Xn-73">
          <mxGeometry relative="1" as="geometry">
            <mxPoint x="1689.4705882352941" y="610" as="targetPoint" />
          </mxGeometry>
        </mxCell>
        <mxCell id="NObJLYzm5EEqaqrMD9Xn-75" style="edgeStyle=orthogonalEdgeStyle;rounded=0;orthogonalLoop=1;jettySize=auto;html=1;exitX=0.5;exitY=1;exitDx=0;exitDy=0;entryX=0.5;entryY=0;entryDx=0;entryDy=0;" edge="1" parent="1" source="NObJLYzm5EEqaqrMD9Xn-56" target="NObJLYzm5EEqaqrMD9Xn-74">
          <mxGeometry relative="1" as="geometry" />
        </mxCell>
        <mxCell id="NObJLYzm5EEqaqrMD9Xn-56" value="任务分发" style="rounded=0;whiteSpace=wrap;html=1;fillColor=#f5f5f5;strokeColor=#666666;fontColor=#333333;" vertex="1" parent="1">
          <mxGeometry x="1635" y="520" width="110" height="50" as="geometry" />
        </mxCell>
        <mxCell id="NObJLYzm5EEqaqrMD9Xn-60" value="数据分析" style="rounded=0;whiteSpace=wrap;html=1;fillColor=#f5f5f5;strokeColor=#666666;fontColor=#333333;" vertex="1" parent="1">
          <mxGeometry x="1635" y="1080" width="110" height="50" as="geometry" />
        </mxCell>
        <mxCell id="NObJLYzm5EEqaqrMD9Xn-63" value="结束" style="strokeWidth=2;html=1;shape=mxgraph.flowchart.start_1;whiteSpace=wrap;fillColor=#dae8fc;strokeColor=#6c8ebf;" vertex="1" parent="1">
          <mxGeometry x="1640" y="1170" width="100" height="50" as="geometry" />
        </mxCell>
        <mxCell id="NObJLYzm5EEqaqrMD9Xn-65" style="edgeStyle=orthogonalEdgeStyle;rounded=0;orthogonalLoop=1;jettySize=auto;html=1;exitX=1;exitY=0.5;exitDx=0;exitDy=0;entryX=1;entryY=0.5;entryDx=0;entryDy=0;" edge="1" parent="1" target="NObJLYzm5EEqaqrMD9Xn-66">
          <mxGeometry relative="1" as="geometry">
            <mxPoint x="1800" y="1000" as="targetPoint" />
            <mxPoint x="1745" y="890" as="sourcePoint" />
            <Array as="points">
              <mxPoint x="1790" y="890" />
              <mxPoint x="1790" y="1005" />
            </Array>
          </mxGeometry>
        </mxCell>
        <mxCell id="NObJLYzm5EEqaqrMD9Xn-69" value="不记录填写用户" style="edgeLabel;html=1;align=center;verticalAlign=middle;resizable=0;points=[];" vertex="1" connectable="0" parent="NObJLYzm5EEqaqrMD9Xn-65">
          <mxGeometry x="-0.0573" y="1" relative="1" as="geometry">
            <mxPoint as="offset" />
          </mxGeometry>
        </mxCell>
        <mxCell id="NObJLYzm5EEqaqrMD9Xn-67" style="edgeStyle=orthogonalEdgeStyle;rounded=0;orthogonalLoop=1;jettySize=auto;html=1;exitX=0.5;exitY=1;exitDx=0;exitDy=0;entryX=0.5;entryY=0;entryDx=0;entryDy=0;" edge="1" parent="1" target="NObJLYzm5EEqaqrMD9Xn-66">
          <mxGeometry relative="1" as="geometry">
            <mxPoint x="1690" y="920" as="sourcePoint" />
          </mxGeometry>
        </mxCell>
        <mxCell id="NObJLYzm5EEqaqrMD9Xn-68" value="记录填写用户" style="edgeLabel;html=1;align=center;verticalAlign=middle;resizable=0;points=[];" vertex="1" connectable="0" parent="NObJLYzm5EEqaqrMD9Xn-67">
          <mxGeometry x="-0.2392" y="-1" relative="1" as="geometry">
            <mxPoint as="offset" />
          </mxGeometry>
        </mxCell>
        <mxCell id="NObJLYzm5EEqaqrMD9Xn-80" style="edgeStyle=orthogonalEdgeStyle;rounded=0;orthogonalLoop=1;jettySize=auto;html=1;exitX=0.5;exitY=1;exitDx=0;exitDy=0;entryX=0.5;entryY=0;entryDx=0;entryDy=0;" edge="1" parent="1" source="NObJLYzm5EEqaqrMD9Xn-66" target="NObJLYzm5EEqaqrMD9Xn-60">
          <mxGeometry relative="1" as="geometry" />
        </mxCell>
        <mxCell id="NObJLYzm5EEqaqrMD9Xn-66" value="数据记录" style="rounded=0;whiteSpace=wrap;html=1;fillColor=#f5f5f5;strokeColor=#666666;fontColor=#333333;" vertex="1" parent="1">
          <mxGeometry x="1635" y="980" width="110" height="50" as="geometry" />
        </mxCell>
        <mxCell id="NObJLYzm5EEqaqrMD9Xn-76" style="edgeStyle=orthogonalEdgeStyle;rounded=0;orthogonalLoop=1;jettySize=auto;html=1;exitX=0.5;exitY=1;exitDx=0;exitDy=0;" edge="1" parent="1" source="NObJLYzm5EEqaqrMD9Xn-73">
          <mxGeometry relative="1" as="geometry">
            <mxPoint x="1690.0000000000005" y="760.0000000000002" as="targetPoint" />
          </mxGeometry>
        </mxCell>
        <mxCell id="NObJLYzm5EEqaqrMD9Xn-78" value="填写完毕" style="edgeLabel;html=1;align=center;verticalAlign=middle;resizable=0;points=[];" vertex="1" connectable="0" parent="NObJLYzm5EEqaqrMD9Xn-76">
          <mxGeometry x="-0.1063" y="-3" relative="1" as="geometry">
            <mxPoint as="offset" />
          </mxGeometry>
        </mxCell>
        <mxCell id="NObJLYzm5EEqaqrMD9Xn-73" value="邮件发送" style="rounded=0;whiteSpace=wrap;html=1;fillColor=#f5f5f5;strokeColor=#666666;fontColor=#333333;" vertex="1" parent="1">
          <mxGeometry x="1530" y="630" width="110" height="50" as="geometry" />
        </mxCell>
        <mxCell id="NObJLYzm5EEqaqrMD9Xn-77" style="edgeStyle=orthogonalEdgeStyle;rounded=0;orthogonalLoop=1;jettySize=auto;html=1;exitX=0.5;exitY=1;exitDx=0;exitDy=0;entryX=0.5;entryY=0;entryDx=0;entryDy=0;" edge="1" parent="1" source="NObJLYzm5EEqaqrMD9Xn-74">
          <mxGeometry relative="1" as="geometry">
            <mxPoint x="1690" y="760" as="targetPoint" />
          </mxGeometry>
        </mxCell>
        <mxCell id="NObJLYzm5EEqaqrMD9Xn-79" value="填写完毕" style="edgeLabel;html=1;align=center;verticalAlign=middle;resizable=0;points=[];" vertex="1" connectable="0" parent="NObJLYzm5EEqaqrMD9Xn-77">
          <mxGeometry x="-0.1555" relative="1" as="geometry">
            <mxPoint as="offset" />
          </mxGeometry>
        </mxCell>
        <mxCell id="NObJLYzm5EEqaqrMD9Xn-74" value="钉钉通知" style="rounded=0;whiteSpace=wrap;html=1;fillColor=#f5f5f5;strokeColor=#666666;fontColor=#333333;" vertex="1" parent="1">
          <mxGeometry x="1720" y="630" width="110" height="50" as="geometry" />
        </mxCell>
        <mxCell id="NObJLYzm5EEqaqrMD9Xn-81" style="edgeStyle=orthogonalEdgeStyle;rounded=0;orthogonalLoop=1;jettySize=auto;html=1;exitX=0.5;exitY=1;exitDx=0;exitDy=0;entryX=0.5;entryY=0;entryDx=0;entryDy=0;entryPerimeter=0;" edge="1" parent="1" source="NObJLYzm5EEqaqrMD9Xn-60" target="NObJLYzm5EEqaqrMD9Xn-63">
          <mxGeometry relative="1" as="geometry" />
        </mxCell>
        <mxCell id="NObJLYzm5EEqaqrMD9Xn-87" style="edgeStyle=orthogonalEdgeStyle;rounded=0;orthogonalLoop=1;jettySize=auto;html=1;exitX=0.5;exitY=1;exitDx=0;exitDy=0;" edge="1" parent="1" source="NObJLYzm5EEqaqrMD9Xn-82">
          <mxGeometry relative="1" as="geometry">
            <mxPoint x="2465.3913043478265" y="470" as="targetPoint" />
          </mxGeometry>
        </mxCell>
        <mxCell id="NObJLYzm5EEqaqrMD9Xn-82" value="问卷调查" style="rounded=0;whiteSpace=wrap;html=1;fillColor=#fff2cc;strokeColor=#d6b656;" vertex="1" parent="1">
          <mxGeometry x="2415" y="390" width="100" height="40" as="geometry" />
        </mxCell>
        <mxCell id="NObJLYzm5EEqaqrMD9Xn-90" style="edgeStyle=orthogonalEdgeStyle;rounded=0;orthogonalLoop=1;jettySize=auto;html=1;exitX=0.5;exitY=1;exitDx=0;exitDy=0;entryX=0.5;entryY=0;entryDx=0;entryDy=0;" edge="1" parent="1" source="NObJLYzm5EEqaqrMD9Xn-83" target="NObJLYzm5EEqaqrMD9Xn-82">
          <mxGeometry relative="1" as="geometry" />
        </mxCell>
        <mxCell id="NObJLYzm5EEqaqrMD9Xn-83" value="omc" style="rounded=0;whiteSpace=wrap;html=1;fillColor=#dae8fc;strokeColor=#6c8ebf;" vertex="1" parent="1">
          <mxGeometry x="2350" y="310" width="95" height="40" as="geometry" />
        </mxCell>
        <mxCell id="NObJLYzm5EEqaqrMD9Xn-88" value="工作流" style="rounded=0;whiteSpace=wrap;html=1;fillColor=#dae8fc;strokeColor=#6c8ebf;" vertex="1" parent="1">
          <mxGeometry x="2415" y="470" width="95" height="40" as="geometry" />
        </mxCell>
        <mxCell id="NObJLYzm5EEqaqrMD9Xn-91" style="edgeStyle=orthogonalEdgeStyle;rounded=0;orthogonalLoop=1;jettySize=auto;html=1;exitX=0.5;exitY=1;exitDx=0;exitDy=0;entryX=0.5;entryY=0;entryDx=0;entryDy=0;" edge="1" parent="1" source="NObJLYzm5EEqaqrMD9Xn-89" target="NObJLYzm5EEqaqrMD9Xn-82">
          <mxGeometry relative="1" as="geometry" />
        </mxCell>
        <mxCell id="NObJLYzm5EEqaqrMD9Xn-89" value="低代码平台" style="rounded=0;whiteSpace=wrap;html=1;fillColor=#dae8fc;strokeColor=#6c8ebf;" vertex="1" parent="1">
          <mxGeometry x="2490" y="310" width="95" height="40" as="geometry" />
        </mxCell>
        <mxCell id="NObJLYzm5EEqaqrMD9Xn-98" value="表单定义" style="swimlane;fontStyle=0;childLayout=stackLayout;horizontal=1;startSize=26;fillColor=#d5e8d4;horizontalStack=0;resizeParent=1;resizeParentMax=0;resizeLast=0;collapsible=1;marginBottom=0;whiteSpace=wrap;html=1;strokeColor=#82b366;" vertex="1" parent="1">
          <mxGeometry x="2320" y="620" width="140" height="120" as="geometry" />
        </mxCell>
        <mxCell id="NObJLYzm5EEqaqrMD9Xn-99" value="+ 表单id&lt;div&gt;+ 表单key&lt;/div&gt;&lt;div&gt;+ 表单url&lt;/div&gt;&lt;div&gt;+ 表单类型&lt;/div&gt;&lt;div&gt;+表单内容&lt;br&gt;&lt;div&gt;&lt;br&gt;&lt;div&gt;&lt;br&gt;&lt;/div&gt;&lt;/div&gt;&lt;/div&gt;" style="text;strokeColor=none;fillColor=none;align=left;verticalAlign=top;spacingLeft=4;spacingRight=4;overflow=hidden;rotatable=0;points=[[0,0.5],[1,0.5]];portConstraint=eastwest;whiteSpace=wrap;html=1;" vertex="1" parent="NObJLYzm5EEqaqrMD9Xn-98">
          <mxGeometry y="26" width="140" height="94" as="geometry" />
        </mxCell>
        <mxCell id="NObJLYzm5EEqaqrMD9Xn-102" value="问卷任务" style="swimlane;fontStyle=0;childLayout=stackLayout;horizontal=1;startSize=26;fillColor=#d5e8d4;horizontalStack=0;resizeParent=1;resizeParentMax=0;resizeLast=0;collapsible=1;marginBottom=0;whiteSpace=wrap;html=1;strokeColor=#82b366;" vertex="1" parent="1">
          <mxGeometry x="2580" y="620" width="140" height="160" as="geometry" />
        </mxCell>
        <mxCell id="NObJLYzm5EEqaqrMD9Xn-103" value="+ 任务id&lt;div&gt;+ 表单key&lt;br&gt;&lt;div&gt;+ 问卷内容&lt;/div&gt;&lt;div&gt;+ 问卷地址&lt;br&gt;&lt;/div&gt;&lt;div&gt;+ 触达方式&lt;/div&gt;&lt;div&gt;+ 失效时间&lt;/div&gt;&lt;div&gt;+ 是否匿名&lt;/div&gt;&lt;div&gt;+ 触达用户&lt;/div&gt;&lt;div&gt;&lt;br&gt;&lt;div&gt;&lt;br&gt;&lt;div&gt;&lt;br&gt;&lt;/div&gt;&lt;/div&gt;&lt;/div&gt;&lt;/div&gt;" style="text;strokeColor=none;fillColor=none;align=left;verticalAlign=top;spacingLeft=4;spacingRight=4;overflow=hidden;rotatable=0;points=[[0,0.5],[1,0.5]];portConstraint=eastwest;whiteSpace=wrap;html=1;" vertex="1" parent="NObJLYzm5EEqaqrMD9Xn-102">
          <mxGeometry y="26" width="140" height="134" as="geometry" />
        </mxCell>
        <mxCell id="NObJLYzm5EEqaqrMD9Xn-109" value="问卷收集信息" style="swimlane;fontStyle=0;childLayout=stackLayout;horizontal=1;startSize=26;fillColor=#d5e8d4;horizontalStack=0;resizeParent=1;resizeParentMax=0;resizeLast=0;collapsible=1;marginBottom=0;whiteSpace=wrap;html=1;strokeColor=#82b366;" vertex="1" parent="1">
          <mxGeometry x="2580" y="850" width="140" height="120" as="geometry" />
        </mxCell>
        <mxCell id="NObJLYzm5EEqaqrMD9Xn-110" value="+ 任务id&lt;div&gt;+ 表单key&lt;/div&gt;&lt;div&gt;+ 问卷号&lt;br&gt;&lt;div&gt;+ 答案id&lt;br&gt;&lt;div&gt;+ 答案内容&lt;/div&gt;&lt;div&gt;+ 填写用户&lt;/div&gt;&lt;div&gt;&lt;br&gt;&lt;div&gt;&lt;br&gt;&lt;div&gt;&lt;br&gt;&lt;/div&gt;&lt;/div&gt;&lt;/div&gt;&lt;/div&gt;&lt;/div&gt;" style="text;strokeColor=none;fillColor=none;align=left;verticalAlign=top;spacingLeft=4;spacingRight=4;overflow=hidden;rotatable=0;points=[[0,0.5],[1,0.5]];portConstraint=eastwest;whiteSpace=wrap;html=1;" vertex="1" parent="NObJLYzm5EEqaqrMD9Xn-109">
          <mxGeometry y="26" width="140" height="94" as="geometry" />
        </mxCell>
        <mxCell id="NObJLYzm5EEqaqrMD9Xn-112" style="edgeStyle=orthogonalEdgeStyle;rounded=0;orthogonalLoop=1;jettySize=auto;html=1;exitX=0.5;exitY=0;exitDx=0;exitDy=0;endArrow=none;endFill=0;" edge="1" parent="1" source="NObJLYzm5EEqaqrMD9Xn-109">
          <mxGeometry relative="1" as="geometry">
            <mxPoint x="2650" y="760" as="targetPoint" />
          </mxGeometry>
        </mxCell>
        <mxCell id="NObJLYzm5EEqaqrMD9Xn-115" value="1" style="edgeLabel;html=1;align=center;verticalAlign=middle;resizable=0;points=[];" vertex="1" connectable="0" parent="NObJLYzm5EEqaqrMD9Xn-112">
          <mxGeometry x="0.4943" relative="1" as="geometry">
            <mxPoint as="offset" />
          </mxGeometry>
        </mxCell>
        <mxCell id="NObJLYzm5EEqaqrMD9Xn-116" value="*" style="edgeLabel;html=1;align=center;verticalAlign=middle;resizable=0;points=[];" vertex="1" connectable="0" parent="NObJLYzm5EEqaqrMD9Xn-112">
          <mxGeometry x="-0.5575" y="-1" relative="1" as="geometry">
            <mxPoint as="offset" />
          </mxGeometry>
        </mxCell>
        <mxCell id="NObJLYzm5EEqaqrMD9Xn-117" style="edgeStyle=orthogonalEdgeStyle;rounded=0;orthogonalLoop=1;jettySize=auto;html=1;exitX=1;exitY=0.5;exitDx=0;exitDy=0;entryX=-0.008;entryY=0.348;entryDx=0;entryDy=0;entryPerimeter=0;endArrow=none;endFill=0;" edge="1" parent="1" source="NObJLYzm5EEqaqrMD9Xn-99" target="NObJLYzm5EEqaqrMD9Xn-103">
          <mxGeometry relative="1" as="geometry" />
        </mxCell>
        <mxCell id="NObJLYzm5EEqaqrMD9Xn-118" value="1" style="edgeLabel;html=1;align=center;verticalAlign=middle;resizable=0;points=[];" vertex="1" connectable="0" parent="NObJLYzm5EEqaqrMD9Xn-117">
          <mxGeometry x="-0.6254" relative="1" as="geometry">
            <mxPoint as="offset" />
          </mxGeometry>
        </mxCell>
        <mxCell id="NObJLYzm5EEqaqrMD9Xn-119" value="*" style="edgeLabel;html=1;align=center;verticalAlign=middle;resizable=0;points=[];" vertex="1" connectable="0" parent="NObJLYzm5EEqaqrMD9Xn-117">
          <mxGeometry x="0.7083" y="3" relative="1" as="geometry">
            <mxPoint as="offset" />
          </mxGeometry>
        </mxCell>
        <mxCell id="NObJLYzm5EEqaqrMD9Xn-120" value="是否匿名" style="rhombus;whiteSpace=wrap;html=1;fillColor=#f5f5f5;fontColor=#333333;strokeColor=#666666;" vertex="1" parent="1">
          <mxGeometry x="1635" y="860" width="110" height="60" as="geometry" />
        </mxCell>
        <mxCell id="NObJLYzm5EEqaqrMD9Xn-122" style="edgeStyle=orthogonalEdgeStyle;rounded=0;orthogonalLoop=1;jettySize=auto;html=1;exitX=0.5;exitY=1;exitDx=0;exitDy=0;entryX=0.5;entryY=0;entryDx=0;entryDy=0;" edge="1" parent="1" source="NObJLYzm5EEqaqrMD9Xn-121" target="NObJLYzm5EEqaqrMD9Xn-120">
          <mxGeometry relative="1" as="geometry" />
        </mxCell>
        <mxCell id="NObJLYzm5EEqaqrMD9Xn-123" value="否" style="edgeLabel;html=1;align=center;verticalAlign=middle;resizable=0;points=[];" vertex="1" connectable="0" parent="NObJLYzm5EEqaqrMD9Xn-122">
          <mxGeometry x="-0.213" y="-1" relative="1" as="geometry">
            <mxPoint as="offset" />
          </mxGeometry>
        </mxCell>
        <mxCell id="NObJLYzm5EEqaqrMD9Xn-121" value="问卷是否过期" style="rhombus;whiteSpace=wrap;html=1;fillColor=#f5f5f5;fontColor=#333333;strokeColor=#666666;" vertex="1" parent="1">
          <mxGeometry x="1635" y="760" width="110" height="60" as="geometry" />
        </mxCell>
        <mxCell id="NObJLYzm5EEqaqrMD9Xn-125" style="edgeStyle=orthogonalEdgeStyle;rounded=0;orthogonalLoop=1;jettySize=auto;html=1;exitX=0;exitY=0.5;exitDx=0;exitDy=0;entryX=0;entryY=0.5;entryDx=0;entryDy=0;entryPerimeter=0;" edge="1" parent="1" source="NObJLYzm5EEqaqrMD9Xn-121" target="NObJLYzm5EEqaqrMD9Xn-63">
          <mxGeometry relative="1" as="geometry">
            <Array as="points">
              <mxPoint x="1580" y="790" />
              <mxPoint x="1580" y="1195" />
            </Array>
          </mxGeometry>
        </mxCell>
        <mxCell id="NObJLYzm5EEqaqrMD9Xn-126" value="是" style="edgeLabel;html=1;align=center;verticalAlign=middle;resizable=0;points=[];" vertex="1" connectable="0" parent="NObJLYzm5EEqaqrMD9Xn-125">
          <mxGeometry x="-0.9146" y="2" relative="1" as="geometry">
            <mxPoint as="offset" />
          </mxGeometry>
        </mxCell>
      </root>
    </mxGraphModel>
  </diagram>
</mxfile>
